<svg width="60" height="60" viewBox="0 0 60 60" fill="none" xmlns="http://www.w3.org/2000/svg">
<path d="M49.9999 25C49.9999 37.4825 36.1524 50.4825 31.5024 54.4975C31.0692 54.8232 30.5419 54.9994 29.9999 54.9994C29.4579 54.9994 28.9306 54.8232 28.4974 54.4975C23.8474 50.4825 9.99988 37.4825 9.99988 25C9.99988 19.6957 12.107 14.6086 15.8577 10.8579C19.6085 7.10714 24.6955 5 29.9999 5C35.3042 5 40.3913 7.10714 44.142 10.8579C47.8927 14.6086 49.9999 19.6957 49.9999 25Z" stroke="#4834E0" stroke-width="5" stroke-linecap="round" stroke-linejoin="round"/>
<path d="M29.9998 32.5C34.1419 32.5 37.4998 29.1421 37.4998 25C37.4998 20.8579 34.1419 17.5 29.9998 17.5C25.8576 17.5 22.4998 20.8579 22.4998 25C22.4998 29.1421 25.8576 32.5 29.9998 32.5Z" stroke="#4834E0" stroke-width="5" stroke-linecap="round" stroke-linejoin="round"/>
</svg>
